<svg id="圖層_1" data-name="圖層 1" xmlns="http://www.w3.org/2000/svg" viewBox="0 0 184 34.07"><defs><style>.cls-1{fill:#fff;}</style></defs><title>LOGO</title><path class="cls-1" d="M359.13,436.35h4.2v-1.77h2.1V436h4.12V424H359.13v12.32Zm4.28-9.09h2v4.09h-2v-4.09Z" transform="translate(-205.76 -403.3)"/><rect class="cls-1" x="153.37" y="15.38" width="10.39" height="3.47"/><rect class="cls-1" x="153.37" y="10.34" width="10.39" height="3.51"/><path class="cls-1" d="M371.49,435.88h16.69V424.43H371.49v11.45Zm4.92-8.11h6.69v4.68h-6.69v-4.68Z" transform="translate(-205.76 -403.3)"/><path class="cls-1" d="M387.66,419.33v-7.5h-7.93l0.34-2.28h8.82v-3.48H370.33v2.45h-3.71a12.29,12.29,0,0,0-1.39-3.51l-4.63.41a16.65,16.65,0,0,1,1.43,3.1h-4.26V412h12.57v-2.48h5.48l-0.34,2.28h-4.29v3.74h3.61l-0.58,3.84h-3.88v3.4h7.34l1.38-7.24h3.88v3.75h-3.21L379,422.8h10.75v-3.46h-2.1Z" transform="translate(-205.76 -403.3)"/><polygon class="cls-1" points="145.59 18.98 145.59 15.83 132.66 15.83 132.66 13.79 142.98 13.79 142.98 10.59 132.66 10.59 132.66 8.68 144.89 8.68 144.89 5.34 138.66 5.34 141.64 1.55 135.89 1.63 132.94 5.34 127.84 5.33 125.32 1.55 119.13 1.55 121.65 5.33 115.78 5.34 115.78 8.68 127.45 8.68 127.45 10.59 117.76 10.59 117.76 13.79 127.45 13.79 127.45 15.83 115.16 15.83 115.16 18.98 145.59 18.98"/><path class="cls-1" d="M343,428.33h8.22v-3.51l-13,0a14.39,14.39,0,0,0,.17-1.65h-5.2a8.28,8.28,0,0,1-.32,1.65l-11.71,0v3.51h9.62c-1.27,1.24-4.16,2.78-10.13,4.14l1.17,3.8c8.84-.9,14-4.68,15-7.07,4.67,5.66,11.25,6.91,13.87,7.23l1.21-3.61A22.52,22.52,0,0,1,343,428.33Z" transform="translate(-205.76 -403.3)"/><path class="cls-1" d="M307.79,431.42v-9.94h4.52v-3.62H297v-2.4a54.1,54.1,0,0,0,14.78-2.14l-1.18-3.85c-4.71,1.55-11.38,2.32-18.3,2.32h-0.43v6.09c0,4.73-.26,10.32-2.41,12.42l5,1.08c2.07-2.74,2.34-5.83,2.49-10.1h5.55v10.12h5.33Z" transform="translate(-205.76 -403.3)"/><polygon class="cls-1" points="107.74 1.91 85.16 1.91 82.9 5.79 107.74 5.79 107.74 1.91"/><polygon class="cls-1" points="82.88 29.11 82.88 1.91 77.75 1.91 77.75 32.73 108.39 32.73 108.39 29.11 82.88 29.11"/><polygon class="cls-1" points="49.45 28.96 49.45 23.86 68.75 23.86 68.75 11.1 51.86 11.1 49.57 14.67 63.47 14.67 63.47 20.29 49.45 20.29 49.45 6.34 70.84 6.34 70.84 2.75 40.81 2.75 40.81 6.4 44.14 6.4 44.14 28.9 40.58 28.9 40.58 32.67 71.48 32.67 71.48 28.96 49.45 28.96"/><path class="cls-1" d="M226.21,403.3c-9.41,0-18.43,7.63-20.16,17s4.5,17,13.91,17,18.44-7.63,20.16-17S235.62,403.3,226.21,403.3Zm5.25,19.85L229,431.67H218.52c-5.71-.09-9-4.92-7.35-10.77,1-3.36,3.91-6.77,6.94-8.72-1.51,1.71-3.64,3.82-4.33,6.23-1.78,6.25,2.63,9.06,5.83,9.19h5.22l1.27-4.45h-3.82l1.09-3.82h9.17Zm2.43-8.75h-8.52a6.8,6.8,0,0,0-6,5c-1.31,4.58,1.85,6.5,1.85,6.5-3.87-.34-6.91-3.25-5.54-8.08a12.3,12.3,0,0,1,11.6-9l8.1,0.16Z" transform="translate(-205.76 -403.3)"/></svg>